<?xml version="1.0" encoding="UTF-8"?>
<svg id="Layer_1" data-name="Layer 1" xmlns="http://www.w3.org/2000/svg" xmlns:xlink="http://www.w3.org/1999/xlink" viewBox="0 0 612 792">
  <defs>
    <style>
      .cls-1 {
        fill: url(#linear-gradient);
      }

      .cls-1, .cls-2, .cls-3, .cls-4, .cls-5, .cls-6, .cls-7, .cls-8, .cls-9, .cls-10 {
        stroke-width: 0px;
      }

      .cls-2 {
        fill: url(#linear-gradient-6);
      }

      .cls-3 {
        fill: url(#linear-gradient-5);
      }

      .cls-4 {
        fill: url(#linear-gradient-2);
      }

      .cls-5 {
        fill: url(#linear-gradient-7);
      }

      .cls-6 {
        fill: url(#linear-gradient-3);
      }

      .cls-7 {
        fill: url(#linear-gradient-9);
      }

      .cls-8 {
        fill: url(#linear-gradient-8);
      }

      .cls-9 {
        fill: url(#linear-gradient-10);
      }

      .cls-10 {
        fill: url(#linear-gradient-4);
      }
    </style>
    <linearGradient id="linear-gradient" x1="240.25" y1="283.27" x2="240.25" y2="776.74" gradientUnits="userSpaceOnUse">
      <stop offset="0" stop-color="#309b72"/>
      <stop offset="1" stop-color="#267455"/>
    </linearGradient>
    <linearGradient id="linear-gradient-2" x1="323.82" y1="-297.13" x2="323.82" y2="1142.15" xlink:href="#linear-gradient"/>
    <linearGradient id="linear-gradient-3" x1="300.9" y1="-92" x2="300.9" y2="1084.96" xlink:href="#linear-gradient"/>
    <linearGradient id="linear-gradient-4" x1="233.92" y1="259.14" x2="233.92" y2="804.78" xlink:href="#linear-gradient"/>
    <linearGradient id="linear-gradient-5" x1="338.83" y1="308.85" x2="338.83" y2="549.96" xlink:href="#linear-gradient"/>
    <linearGradient id="linear-gradient-6" x1="367.95" y1="451.4" x2="367.95" y2="497.03" xlink:href="#linear-gradient"/>
    <linearGradient id="linear-gradient-7" x1="346.62" y1="404.49" x2="346.62" y2="507.45" xlink:href="#linear-gradient"/>
    <linearGradient id="linear-gradient-8" x1="242.03" y1="280.59" x2="242.03" y2="637.45" xlink:href="#linear-gradient"/>
    <linearGradient id="linear-gradient-9" x1="195.31" y1="299.04" x2="195.31" y2="1024.5" xlink:href="#linear-gradient"/>
    <linearGradient id="linear-gradient-10" x1="276.61" y1="153.96" x2="276.61" y2="820.09" xlink:href="#linear-gradient"/>
  </defs>
  <path class="cls-1" d="M280.64,345.4c-2.25,5.43-4.48,10.75-8.25,15.22-.36-.45-.23-.85-.14-1.19.1-.38.35-.71.17-1.29-1.1,1.54-2.53,2.43-4.38,3.35,1.48-3.61,2.88-6.81,4.12-10.1,3.06-8.1,5.15-16.53,7.02-25.04.44-2,.97-3.97,1.81-5.82,2.01-4.45,5.69-5.78,9.68-3.4,3.56,2.13,5.81,5.57,7.56,9.45,2.54,5.6,3.78,11.58,4.51,17.75.81,6.81.78,13.63.14,20.4-.98,10.4-3.29,20.5-6.23,30.45-5.86,19.89-13.66,38.78-24.17,56.28-6.34,10.57-13.46,20.46-21.23,29.82-3.91,4.72-7.93,9.3-12.78,12.88-2.07,1.52-4.3,2.47-6.88,2.59-4.14.19-8.16-2.98-8.32-8.9-.08-2.93.55-5.71,1.35-8.44,1.77-6.04,3.5-12.09,4.5-18.35,1.15-7.2,1.41-14.44.94-21.73-.33-5.18-1.12-10.23-2.96-15.04-2.93-7.63-7.87-13.38-14.06-17.96-.33-.25-.67-.32-1.07-.19,3.79,5.45,8.15,10.56,8.35,18.02-2.63-2.54-5.32-4.9-8.21-6.99-5.04-3.65-10.63-6.17-15.88-9.39-6.08-3.73-11.66-8.12-15.46-14.69-2.3-3.98-3.74-8.23-3.65-13.1.11-5.44,3.82-7.7,8.15-6.76,4.97,1.07,9.9,2.43,14.88,3.47,5.58,1.16,11.23,1.9,16.9,2.28,5.54.38,11.08.84,16.63.67,8.1-.26,16.21-.55,24.08-3.08,12.89-4.14,20.12-13.74,22.62-27.94.02-.11.02-.23.03-.35.07-.96.14-1.92.21-2.89Z"/>
  <path class="cls-4" d="M276.96,477.28c9.44-9.37,18.46-19.18,26.81-29.75,7.9-10,15.23-20.44,21.38-31.82,10.62-19.66,19.11-40.35,24.65-62.42.65-2.59,1.16-5.22,1.49-8.11-2.75,1.36-5.37,2.59-7.93,3.96-1.13.61-1.34.25-1.61-.95-1.48-6.53,1.28-10.89,5.97-14.28,2.84-2.06,5.86-3.78,8.97-5.32,4.74-2.35,9.47-4.74,14.01-8.04-.49,3.92-.87,7.58-1.42,11.2-2.05,13.36-5.7,26.22-10.41,38.72-7.43,19.7-16.92,38.11-28.93,54.95-8.75,12.26-18.61,23.31-29.47,33.32-7.18,6.62-14.64,12.81-22.45,18.51-.22.16-.47.25-.71.37-.35.16-.41-.03-.35-.35Z"/>
  <path class="cls-6" d="M263.47,483.48c8.51-10.11,16.1-20.99,22.57-32.77,8.82-16.06,16.23-32.88,22.35-50.37,3.13-8.95,6.03-17.99,8.31-27.25,1.78-7.25,3.18-14.58,4.1-22.37-3.96,2.21-7.73,4.32-11.5,6.42-1.88-5.42-1.16-9.5,1.89-13.09,3.31-3.89,7.33-6.7,11.62-9.07,5.08-2.81,10.19-5.53,15.51-8.42-.39,3.03-.68,5.82-1.11,8.58-1.75,11.23-3.89,22.37-6.61,33.38-4.07,16.51-8.96,32.7-15.94,48.05-4.73,10.4-10.43,20.14-16.88,29.36-6.3,9-13.13,17.5-20.61,25.35-4.26,4.47-8.94,8.36-13.71,12.19Z"/>
  <path class="cls-10" d="M196.93,353.56c3.62-6.8,7.25-13.49,10.74-20.26,3.16-6.12,6.22-12.31,9.21-18.54.61-1.26,1.33-1.83,2.54-2.15,13.04-3.48,25.94-7.48,38.57-12.47,4.27-1.69,8.5-3.46,12.81-5.21.31.71-.27,1.12-.58,1.57-4.57,6.76-9.27,13.41-13.67,20.29-1.51,2.37-3.16,3.1-5.69,3.24-4.88.27-9.79.5-14.58,1.72-7.11,1.8-12.52,6.1-16.21,13.07-2.04,3.86-3.85,7.82-5.68,11.79-.31.66-.53,1.24-1.31,1.54-4.62,1.78-9.19,3.72-13.9,5.24-.72.23-1.41.27-2.26.17Z"/>
  <path class="cls-3" d="M389.62,433.47c-.3.91-1.01,1-1.54,1.29-12.39,6.9-24.67,14.02-37.19,20.63-15.18,8.02-31.05,14.03-47.24,19.07-4.51,1.41-9.07,2.62-13.6,3.98-.64.19-1.23.18-2.02.18,11.74-5.87,23.28-11.74,34.26-18.81,4.22-2.72,8.23-5.79,11.91-9.33.22-.21.61-.36.46-.79-.15-.42-.53-.29-.82-.28-4.91.02-9.79.51-14.64,1.35-.62.11-1.23.25-1.96-.01.77-1.81,2.01-3.13,3.42-4.21,4.12-3.16,8.8-4.63,13.74-5.4,7.35-1.14,14.78-1.5,22.13-2.67,4.74-.75,9.52-1.15,14.26-1.86,5.15-.77,10.27-1.72,15.4-2.59,1.11-.19,2.23-.36,3.43-.55Z"/>
  <path class="cls-2" d="M300.4,488.45c3.95-.25,7.9-.48,11.85-.76,5.9-.42,11.8-.88,17.7-1.31,3.85-.28,7.7-.49,11.54-.78,5.64-.41,11.27-.86,16.91-1.29,3.42-.26,6.84-.52,10.26-.79,5.96-.47,11.92-.86,17.89-.79,2.43.03,4.86,0,7.24,0-2.04-1.99-10.14-3.79-19.11-4.14,1-.8,1.98-.83,2.88-.95,9.44-1.27,18.58-.05,27.61,3.37,9.97,3.78,19.81,7.91,29.69,11.93.23.09.44.27.65.41-1,.23-132.43-4.38-135.11-4.92Z"/>
  <path class="cls-5" d="M360.88,465.66c-1.88-.51-3.29-.55-5-.56,1.44-1.47,3.08-2.04,4.61-2.71,3.73-1.64,7.64-2.36,11.66-2.49,9.83-.33,19.34,1.32,28.53,5.19.29.12.62.14.78.46-35.84,11.28-72.68,16.05-109.66,19.96,22.82-6.85,46.11-11.74,69.09-19.85Z"/>
  <path class="cls-8" d="M255.05,344.94c.2,7.15-4.34,12.84-9.93,14.26-7.08,1.79-14.39-3.35-15.79-11.17-1.23-6.84,1.01-13.16,5.83-16.43,5.19-3.53,11.69-2.56,15.92,2.31,2.7,3.11,4.12,6.73,3.97,11.04Z"/>
  <path class="cls-7" d="M192.25,366.76c.05-3.22.87-5.96,2.29-8.49.55-.97,1.21-1.89,2.39-1.48,1.19.41,1.55,1.66,1.43,2.79-.38,3.39-1.81,6.3-3.87,8.83-.42.52-1.04.72-1.58.42-.87-.48-.61-1.48-.66-2.08Z"/>
  <path class="cls-9" d="M276.96,477.28c.12.12.23.24.35.35-.46.38-.92.77-1.38,1.15.16-.75.48-1.25,1.03-1.51Z"/>
</svg>